<svg xmlns="http://www.w3.org/2000/svg" viewBox="0 0 1100 440" style="width:100%;height:auto" role="img"><title>Daily share by trigger · output_tokens</title><rect width="1100" height="440" fill="white"/><g font-family="system-ui,sans-serif" fill="#23313f"><text x="30" y="32" font-size="22">Daily share by trigger · output_tokens</text><circle cx="35" cy="63" r="5" fill="#ab5b20"/><text x="47" y="68" font-size="15">wake</text><circle cx="260" cy="63" r="5" fill="#7650a0"/><text x="272" y="68" font-size="15">bell-in</text><circle cx="485" cy="63" r="5" fill="#267d6d"/><text x="497" y="68" font-size="15">operator</text><circle cx="710" cy="63" r="5" fill="#8b939c"/><text x="722" y="68" font-size="15">other</text><rect x="101.0" y="335.8843943115534" width="61.0" height="4.115605688446551" fill="#ab5b20"><title>2026-09-07 wake: 77,411 / 4,326,102</title></rect><rect x="101.0" y="326.0375853366379" width="61.0" height="9.846808974915524" fill="#7650a0"><title>2026-09-07 bell-in: 185,210 / 4,326,102</title></rect><rect x="101.0" y="264.4473130776852" width="61.0" height="61.590272258952744" fill="#267d6d"><title>2026-09-07 operator: 1,158,460 / 4,326,102</title></rect><rect x="101.0" y="110.0" width="61.0" height="154.44731307768518" fill="#8b939c"><title>2026-09-07 other: 2,905,021 / 4,326,102</title></rect><text x="131.5" y="365" font-size="12" text-anchor="middle">09-07</text><rect x="164.0" y="313.71184547475997" width="61.0" height="26.28815452524005" fill="#ab5b20"><title>2026-09-08 wake: 231,153 / 2,022,401</title></rect><rect x="164.0" y="256.28989008609074" width="61.0" height="57.42195538866921" fill="#7650a0"><title>2026-09-08 bell-in: 504,914 / 2,022,401</title></rect><rect x="164.0" y="162.26060509265966" width="61.0" height="94.02928499343108" fill="#267d6d"><title>2026-09-08 operator: 826,804 / 2,022,401</title></rect><rect x="164.0" y="110.0" width="61.0" height="52.26060509265967" fill="#8b939c"><title>2026-09-08 other: 459,530 / 2,022,401</title></rect><text x="194.5" y="365" font-size="12" text-anchor="middle">09-08</text><rect x="227.0" y="293.1054902109839" width="61.0" height="46.89450978901612" fill="#ab5b20"><title>2026-09-09 wake: 236,027 / 1,157,624</title></rect><rect x="227.0" y="247.20518924970457" width="61.0" height="45.900300961279314" fill="#7650a0"><title>2026-09-09 bell-in: 231,023 / 1,157,624</title></rect><rect x="227.0" y="124.26383696260618" width="61.0" height="122.9413522870984" fill="#267d6d"><title>2026-09-09 operator: 618,782 / 1,157,624</title></rect><rect x="227.0" y="110.00000000000001" width="61.0" height="14.263836962606165" fill="#8b939c"><title>2026-09-09 other: 71,792 / 1,157,624</title></rect><text x="257.5" y="365" font-size="12" text-anchor="middle">09-09</text><rect x="290.0" y="330.5272957473747" width="61.0" height="9.472704252625308" fill="#ab5b20"><title>2026-09-10 wake: 22,120 / 537,080</title></rect><rect x="290.0" y="251.95609592611902" width="61.0" height="78.57119982125568" fill="#7650a0"><title>2026-09-10 bell-in: 183,474 / 537,080</title></rect><rect x="290.0" y="205.46875698220003" width="61.0" height="46.48733894391897" fill="#267d6d"><title>2026-09-10 operator: 108,554 / 537,080</title></rect><rect x="290.0" y="109.99999999999999" width="61.0" height="95.46875698220005" fill="#8b939c"><title>2026-09-10 other: 222,932 / 537,080</title></rect><text x="320.5" y="365" font-size="12" text-anchor="middle">09-10</text><rect x="353.0" y="340" width="61.0" height="0" fill="#ab5b20"><title>2026-09-11 wake: 0 / 0</title></rect><rect x="353.0" y="340" width="61.0" height="0" fill="#7650a0"><title>2026-09-11 bell-in: 0 / 0</title></rect><rect x="353.0" y="340" width="61.0" height="0" fill="#267d6d"><title>2026-09-11 operator: 0 / 0</title></rect><rect x="353.0" y="340" width="61.0" height="0" fill="#8b939c"><title>2026-09-11 other: 0 / 0</title></rect><text x="383.5" y="330" font-size="10" text-anchor="middle" transform="rotate(-90 383.5 330)">no records</text><text x="383.5" y="365" font-size="12" text-anchor="middle">09-11</text><rect x="416.0" y="177.89556854780056" width="61.0" height="162.10443145219944" fill="#ab5b20"><title>2026-09-12 wake: 925,469 / 1,313,091</title></rect><rect x="416.0" y="173.3491357415442" width="61.0" height="4.546432806256383" fill="#7650a0"><title>2026-09-12 bell-in: 25,956 / 1,313,091</title></rect><rect x="416.0" y="114.42749969347136" width="61.0" height="58.92163604807283" fill="#267d6d"><title>2026-09-12 operator: 336,389 / 1,313,091</title></rect><rect x="416.0" y="110.0" width="61.0" height="4.427499693471359" fill="#8b939c"><title>2026-09-12 other: 25,277 / 1,313,091</title></rect><text x="446.5" y="365" font-size="12" text-anchor="middle">09-12</text><rect x="479.0" y="320.9958084394257" width="61.0" height="19.004191560574306" fill="#ab5b20"><title>2026-09-13 wake: 36,981 / 447,566</title></rect><rect x="479.0" y="292.7451817162161" width="61.0" height="28.25062672320954" fill="#7650a0"><title>2026-09-13 bell-in: 54,974 / 447,566</title></rect><rect x="479.0" y="184.30242690463524" width="61.0" height="108.44275481158085" fill="#267d6d"><title>2026-09-13 operator: 211,023 / 447,566</title></rect><rect x="479.0" y="109.99999999999994" width="61.0" height="74.3024269046353" fill="#8b939c"><title>2026-09-13 other: 144,588 / 447,566</title></rect><text x="509.5" y="365" font-size="12" text-anchor="middle">09-13</text><rect x="542.0" y="288.02102878837087" width="61.0" height="51.97897121162911" fill="#ab5b20"><title>2026-09-14 wake: 402,882 / 1,782,699</title></rect><rect x="542.0" y="272.43580099613" width="61.0" height="15.585227792240866" fill="#7650a0"><title>2026-09-14 bell-in: 120,799 / 1,782,699</title></rect><rect x="542.0" y="151.24855626216203" width="61.0" height="121.18724473396799" fill="#267d6d"><title>2026-09-14 operator: 939,306 / 1,782,699</title></rect><rect x="542.0" y="110.0" width="61.0" height="41.24855626216203" fill="#8b939c"><title>2026-09-14 other: 319,712 / 1,782,699</title></rect><text x="572.5" y="365" font-size="12" text-anchor="middle">09-14</text><rect x="605.0" y="255.97035576401453" width="61.0" height="84.02964423598546" fill="#ab5b20"><title>2026-09-15 wake: 726,669 / 1,988,987</title></rect><rect x="605.0" y="219.9352836393601" width="61.0" height="36.03507212465441" fill="#7650a0"><title>2026-09-15 bell-in: 311,623 / 1,988,987</title></rect><rect x="605.0" y="146.80394090056896" width="61.0" height="73.13134273879115" fill="#267d6d"><title>2026-09-15 operator: 632,423 / 1,988,987</title></rect><rect x="605.0" y="109.99999999999997" width="61.0" height="36.80394090056898" fill="#8b939c"><title>2026-09-15 other: 318,272 / 1,988,987</title></rect><text x="635.5" y="365" font-size="12" text-anchor="middle">09-15</text><rect x="668.0" y="284.0270915965022" width="61.0" height="55.97290840349778" fill="#ab5b20"><title>2026-09-16 wake: 409,188 / 1,681,407</title></rect><rect x="668.0" y="197.3997729282678" width="61.0" height="86.6273186682344" fill="#7650a0"><title>2026-09-16 bell-in: 633,286 / 1,681,407</title></rect><rect x="668.0" y="135.45651945067434" width="61.0" height="61.943253477593466" fill="#267d6d"><title>2026-09-16 operator: 452,834 / 1,681,407</title></rect><rect x="668.0" y="109.99999999999999" width="61.0" height="25.456519450674346" fill="#8b939c"><title>2026-09-16 other: 186,099 / 1,681,407</title></rect><text x="698.5" y="365" font-size="12" text-anchor="middle">09-16</text><rect x="731.0" y="309.1322373739416" width="61.0" height="30.867762626058354" fill="#ab5b20"><title>2026-09-17 wake: 255,502 / 1,903,781</title></rect><rect x="731.0" y="272.3778995588253" width="61.0" height="36.75433781511634" fill="#7650a0"><title>2026-09-17 bell-in: 304,227 / 1,903,781</title></rect><rect x="731.0" y="127.1785305137513" width="61.0" height="145.19936904507398" fill="#267d6d"><title>2026-09-17 operator: 1,201,860 / 1,903,781</title></rect><rect x="731.0" y="109.99999999999997" width="61.0" height="17.17853051375132" fill="#8b939c"><title>2026-09-17 other: 142,192 / 1,903,781</title></rect><text x="761.5" y="365" font-size="12" text-anchor="middle">09-17</text><rect x="794.0" y="309.6428975818258" width="61.0" height="30.357102418174204" fill="#ab5b20"><title>2026-09-18 wake: 297,245 / 2,252,071</title></rect><rect x="794.0" y="283.92752271131775" width="61.0" height="25.71537487050808" fill="#7650a0"><title>2026-09-18 bell-in: 251,795 / 2,252,071</title></rect><rect x="794.0" y="153.49252754464672" width="61.0" height="130.43499516667103" fill="#267d6d"><title>2026-09-18 operator: 1,277,169 / 2,252,071</title></rect><rect x="794.0" y="110.00000000000003" width="61.0" height="43.492527544646684" fill="#8b939c"><title>2026-09-18 other: 425,862 / 2,252,071</title></rect><text x="824.5" y="365" font-size="12" text-anchor="middle">09-18</text><rect x="857.0" y="261.8156334973314" width="61.0" height="78.18436650266861" fill="#ab5b20"><title>2026-09-19 wake: 736,459 / 2,166,489</title></rect><rect x="857.0" y="229.7948847190085" width="61.0" height="32.0207487783229" fill="#7650a0"><title>2026-09-19 bell-in: 301,620 / 2,166,489</title></rect><rect x="857.0" y="133.80121939229787" width="61.0" height="95.99366532671064" fill="#267d6d"><title>2026-09-19 operator: 904,214 / 2,166,489</title></rect><rect x="857.0" y="110.0" width="61.0" height="23.80121939229786" fill="#8b939c"><title>2026-09-19 other: 224,196 / 2,166,489</title></rect><text x="887.5" y="365" font-size="12" text-anchor="middle">09-19</text><rect x="920.0" y="287.14581870199015" width="61.0" height="52.85418129800987" fill="#ab5b20"><title>2026-09-20 wake: 462,020 / 2,010,524</title></rect><rect x="920.0" y="247.15375195720122" width="61.0" height="39.99206674478892" fill="#7650a0"><title>2026-09-20 bell-in: 349,587 / 2,010,524</title></rect><rect x="920.0" y="137.27706806782712" width="61.0" height="109.8766838893741" fill="#267d6d"><title>2026-09-20 operator: 960,477 / 2,010,524</title></rect><rect x="920.0" y="110.00000000000003" width="61.0" height="27.277068067827095" fill="#8b939c"><title>2026-09-20 other: 238,440 / 2,010,524</title></rect><text x="950.5" y="365" font-size="12" text-anchor="middle">09-20</text><rect x="983.0" y="227.04551765535805" width="61.0" height="112.95448234464195" fill="#ab5b20"><title>2026-09-21 wake: 415,617 / 846,287</title></rect><rect x="983.0" y="207.19178009351438" width="61.0" height="19.853737561843676" fill="#7650a0"><title>2026-09-21 bell-in: 73,052 / 846,287</title></rect><rect x="983.0" y="139.92111423193313" width="61.0" height="67.27066586158124" fill="#267d6d"><title>2026-09-21 operator: 247,523 / 846,287</title></rect><rect x="983.0" y="110.0" width="61.0" height="29.92111423193314" fill="#8b939c"><title>2026-09-21 other: 110,095 / 846,287</title></rect><text x="1013.5" y="365" font-size="12" text-anchor="middle">09-21</text><text x="85" y="345" font-size="13" text-anchor="end">0%</text><text x="85" y="287.5" font-size="13" text-anchor="end">25%</text><text x="85" y="230.0" font-size="13" text-anchor="end">50%</text><text x="85" y="172.5" font-size="13" text-anchor="end">75%</text><text x="85" y="115" font-size="13" text-anchor="end">100%</text><text x="570" y="408" text-anchor="middle" font-size="14">API message date (UTC, month-day) · shares within each recorded day</text></g></svg>
