<svg xmlns="http://www.w3.org/2000/svg" viewBox="0 0 1100 380" style="width:100%;height:auto" role="img"><title>Per-wake token distribution · cache_creation_input_tokens</title><rect width="1100" height="380" fill="white"/><g font-family="system-ui,sans-serif" fill="#23313f"><text x="30" y="32" font-size="22">Per-wake token distribution · cache_creation_input_tokens</text><rect x="95" y="298.25757575757575" width="44" height="1.7424242424242424" fill="#ab5b20"><title>0–1 tokens: 2 wakes</title></rect><rect x="142" y="300.0" width="44" height="0.0" fill="#ab5b20"><title>1–3 tokens: 0 wakes</title></rect><rect x="189" y="300.0" width="44" height="0.0" fill="#ab5b20"><title>3–6 tokens: 0 wakes</title></rect><rect x="236" y="300.0" width="44" height="0.0" fill="#ab5b20"><title>6–12 tokens: 0 wakes</title></rect><rect x="283" y="300.0" width="44" height="0.0" fill="#ab5b20"><title>12–23 tokens: 0 wakes</title></rect><rect x="330" y="300.0" width="44" height="0.0" fill="#ab5b20"><title>23–45 tokens: 0 wakes</title></rect><rect x="377" y="300.0" width="44" height="0.0" fill="#ab5b20"><title>45–86 tokens: 0 wakes</title></rect><rect x="424" y="300.0" width="44" height="0.0" fill="#ab5b20"><title>86–164 tokens: 0 wakes</title></rect><rect x="471" y="300.0" width="44" height="0.0" fill="#ab5b20"><title>164–311 tokens: 0 wakes</title></rect><rect x="518" y="300.0" width="44" height="0.0" fill="#ab5b20"><title>311–589 tokens: 0 wakes</title></rect><rect x="565" y="293.9015151515151" width="44" height="6.098484848484849" fill="#ab5b20"><title>589–1115 tokens: 7 wakes</title></rect><rect x="612" y="256.43939393939394" width="44" height="43.56060606060606" fill="#ab5b20"><title>1115–2112 tokens: 50 wakes</title></rect><rect x="659" y="212.87878787878788" width="44" height="87.12121212121212" fill="#ab5b20"><title>2112–3998 tokens: 100 wakes</title></rect><rect x="706" y="130.11363636363637" width="44" height="169.88636363636363" fill="#ab5b20"><title>3998–7567 tokens: 195 wakes</title></rect><rect x="753" y="70.0" width="44" height="230.0" fill="#ab5b20"><title>7567–14323 tokens: 264 wakes</title></rect><rect x="800" y="174.54545454545456" width="44" height="125.45454545454545" fill="#ab5b20"><title>14323–27110 tokens: 144 wakes</title></rect><rect x="847" y="264.280303030303" width="44" height="35.71969696969697" fill="#ab5b20"><title>27110–51311 tokens: 41 wakes</title></rect><rect x="894" y="285.18939393939394" width="44" height="14.81060606060606" fill="#ab5b20"><title>51311–97116 tokens: 17 wakes</title></rect><rect x="941" y="296.5151515151515" width="44" height="3.484848484848485" fill="#ab5b20"><title>97116–183808 tokens: 4 wakes</title></rect><rect x="988" y="295.6439393939394" width="44" height="4.356060606060606" fill="#ab5b20"><title>183808–347886 tokens: 5 wakes</title></rect><text x="95" y="324" text-anchor="middle" font-size="12">0</text><text x="283" y="324" text-anchor="middle" font-size="12">12</text><text x="471" y="324" text-anchor="middle" font-size="12">164</text><text x="659" y="324" text-anchor="middle" font-size="12">2,112</text><text x="847" y="324" text-anchor="middle" font-size="12">27,110</text><text x="1035" y="324" text-anchor="middle" font-size="12">347,886</text><text x="82" y="305" text-anchor="end" font-size="13">0</text><text x="82" y="190.0" text-anchor="end" font-size="13">132</text><text x="82" y="75" text-anchor="end" font-size="13">264</text><text x="560" y="365" text-anchor="middle" font-size="14">Tokens per wake (equal-width bins in log₁₀(1+tokens))</text><text transform="translate(25 180) rotate(-90)" text-anchor="middle" font-size="14">Number of wakes</text></g></svg>
